{"title":"Ardit Cuni - Let's Go (Official Video) Full HD - truHD HEVC","uid":12245310,"size":47266970,"categoryP":"video","categoryS":"music_videos","magnet":"?xt=urn:btih:b50de8f3a6231667af04c7215c917fb17943bcf9&amp;dn=Ardit+Cuni+-+Let%27s+Go+%28Official+Video%29+Full+HD+-+truHD+HEVC&amp;tr=udp%3A%2F%2Ftracker.openbittorrent.com%3A80&amp;tr=udp%3A%2F%2Fopen.demonii.com%3A1337&amp;tr=udp%3A%2F%2Ftracker.coppersurfer.tk%3A6969&amp;tr=udp%3A%2F%2Fexodus.desync.com%3A6969","seeders":0,"leechers":0,"uploader":"Aainul","files":2,"time":1439889522,"description":"Seeded From High Speed Seedbox\n\n\nArdit Cuni - Let's Go (Official Video) Full HD - truHD HEVC\n\nSource: VEVO / Vevo TV\n\nSource File Info:\n\nGeneral\nFormat : MPEG-4\nFormat profile : Base Media\nCodec ID : isom\nFile size : 80.3 MiB\nDuration : 3mn 52s\nOverall bit rate : 2 898 Kbps\nWriting application : Lavf54.29.104\n\nVideo\nID : 1\nFormat : AVC\nFormat/Info : Advanced Video Codec\nFormat profile : &lt;a class=&quot;__cf_email__&quot; href=&quot;/cdn-cgi/l/email-protection&quot; data-cfemail=&quot;0e466769664e423a203e&quot;&gt;[email&amp;#160;protected]&lt;/a&gt;&lt;script data-cfhash='f9e31' type=&quot;text/javascript&quot;&gt;\n/* &lt;![CDATA[ */!function(){try{var t=&quot;currentScript&quot;in document?document.currentScript:function(){for(var t=document.getElementsByTagName(&quot;script&quot;),e=t.length;e--;)if(t[e].getAttribute(&quot;data-cfhash&quot;))return t[e]}();if(t&amp;&amp;t.previousSibling){var e,r,n,i,c=t.previousSibling,a=c.getAttribute(&quot;data-cfemail&quot;);if(a){for(e=&quot;&quot;,r=parseInt(a.substr(0,2),16),n=2;a.length-n;n+=2)i=parseInt(a.substr(n,2),16)^r,e+=String.fromCharCode(i);e=document.createTextNode(e),c.parentNode.replaceChild(e,c)}t.parentNode.removeChild(t);}}catch(u){}}()/* ]]&gt; */&lt;/script&gt;\nFormat settings, CABAC : Yes\nFormat settings, ReFrames : 3 frames\nCodec ID : avc1\nCodec ID/Info : Advanced Video Coding\nDuration : 3mn 52s\nBit rate : 2 768 Kbps\nWidth : 1 920 pixels\nHeight : 1 080 pixels\nDisplay aspect ratio : 16:9\nFrame rate mode : Constant\nFrame rate : 25.000 fps\nColor space : YUV\nChroma subsampling : 4:2:0\nBit depth : 8 bits\nScan type : Progressive\nBits/(Pixel*Frame) : 0.053\nStream size : 76.6 MiB (95%)\n\nAudio\nID : 2\nFormat : AAC\nFormat/Info : Advanced Audio Codec\nFormat profile : LC\nCodec ID : 40\nDuration : 3mn 52s\nBit rate mode : Constant\nBit rate : 126 Kbps\nChannel(s) : 2 channels\nChannel positions : Front: L R\nSampling rate : 44.1 KHz\nCompression mode : Lossy\nStream size : 3.48 MiB (4%)\n\n\n\nEncoder: truHD HEVC Encoding Team\n\nEncoded File Info:\n\nGeneral\nFormat : MPEG-4\nCodec ID : M4V \nFile size : 44.9 MiB\nDuration : 3mn 52s\nOverall bit rate : 1 622 Kbps\nEncoded date : UTC 2015-08-16 13:00:08\nTagged date : UTC 2015-08-16 13:00:08\n\nVideo\nID : 1\nFormat : HEVC\nFormat/Info : High Efficiency Video Coding\nCodec ID : hvc1\nCodec ID/Info : High Efficiency Video Coding\nDuration : 3mn 51s\nSource duration : 3mn 51s\nBit rate : 1 421 Kbps\nMaximum bit rate : 2 836 Kbps\nWidth : 1 920 pixels\nHeight : 1 080 pixels\nDisplay aspect ratio : 16:9\nFrame rate mode : Constant\nFrame rate : 25.000 fps\nBits/(Pixel*Frame) : 0.027\nStream size : 39.2 MiB (87%)\nSource stream size : 41.3 MiB (92%)\nEncoded date : UTC 2015-08-16 13:00:08\nTagged date : UTC 2015-08-16 13:00:14\n\nAudio\nID : 2\nFormat : AC-3\nFormat/Info : Audio Coding 3\nMode extension : CM (complete main)\nFormat settings, Endianness : Big\nCodec ID : ac-3\nDuration : 3mn 52s\nBit rate mode : Constant\nBit rate : 128 Kbps\nMaximum bit rate : 134 Kbps\nChannel(s) : 2 channels\nChannel positions : Front: L R\nSampling rate : 44.1 KHz\nBit depth : 16 bits\nCompression mode : Lossy\nStream size : 3.54 MiB (8%)\nTitle : &lt;a class=&quot;__cf_email__&quot; href=&quot;/cdn-cgi/l/email-protection&quot; data-cfemail=&quot;3a5b5909195b4f5e53557a7d6a7b790a140f1408177e7f6c17485f4c09020d175d090b0a080a030e17575b494e5f48&quot;&gt;[email&amp;#160;protected]&lt;/a&gt;&lt;script data-cfhash='f9e31' type=&quot;text/javascript&quot;&gt;\n/* &lt;![CDATA[ */!function(){try{var t=&quot;currentScript&quot;in document?document.currentScript:function(){for(var t=document.getElementsByTagName(&quot;script&quot;),e=t.length;e--;)if(t[e].getAttribute(&quot;data-cfhash&quot;))return t[e]}();if(t&amp;&amp;t.previousSibling){var e,r,n,i,c=t.previousSibling,a=c.getAttribute(&quot;data-cfemail&quot;);if(a){for(e=&quot;&quot;,r=parseInt(a.substr(0,2),16),n=2;a.length-n;n+=2)i=parseInt(a.substr(n,2),16)^r,e+=String.fromCharCode(i);e=document.createTextNode(e),c.parentNode.replaceChild(e,c)}t.parentNode.removeChild(t);}}catch(u){}}()/* ]]&gt; */&lt;/script&gt;\nEncoded date : UTC 2015-08-16 13:00:13\nTagged date : UTC 2015-08-16 13:00:14\n\n\nScreenShots:\n &lt;a href=&quot;\nhttps://yuq.me/users/36/459/5RAjzgwsuU.jpg&quot; rel=&quot;nofollow&quot; target=&quot;_NEW&quot;&gt;\nhttps://yuq.me/users/36/459/5RAjzgwsuU.jpg&lt;/a&gt;\n\nLike Us On FB And Request Accepted @\n\nKickAssTorrents: https://kat.cr/user/Aainul/\nGloTorrents: https://glodls.to/user/Aainul\nThePirateBay: https://thepiratebay.vg/user/Aainul/\n1337x Torrents: http://1337.to/user/Aainul/\n\n\nNote: All Videos Uploaded By Me Are For Review Purpose. If You Like IT, Google IT And Buy IT - Thanks\n\n\nKing Regards\ntruHD HEVC Team\n\nShare Among Friends And Relatives","torrent":{"xt":"urn:btih:b50de8f3a6231667af04c7215c917fb17943bcf9","amp;dn":"Ardit+Cuni+-+Let%27s+Go+%28Official+Video%29+Full+HD+-+truHD+HEVC","amp;tr":["udp%3A%2F%2Ftracker.openbittorrent.com%3A80","udp%3A%2F%2Fopen.demonii.com%3A1337","udp%3A%2F%2Ftracker.coppersurfer.tk%3A6969","udp%3A%2F%2Fexodus.desync.com%3A6969"],"infoHash":"b50de8f3a6231667af04c7215c917fb17943bcf9","infoHashBuffer":{"type":"Buffer","data":[181,13,232,243,166,35,22,103,175,4,199,33,92,145,127,177,121,67,188,249]},"announce":[],"urlList":[]}}